<svg width="2000px" height="953px"
 viewBox="0.00 0.00 832.96 396.91" xmlns="http://www.w3.org/2000/svg" xmlns:xlink="http://www.w3.org/1999/xlink">
<g id="graph0" class="graph" transform="scale(1.0 1.0) rotate(0) translate(4 392.91)">
<title>ContextMapGraph</title>
<polygon fill="white" stroke="transparent" points="-4,4 -4,-392.91 828.96,-392.91 828.96,4 -4,4"/>
<!-- Accounting -->
<g id="node1" class="node">
<title>Accounting</title>
<polygon fill="none" stroke="black" stroke-width="2" points="45.62,-160 50.46,-158.19 55.44,-156.48 60.53,-154.88 65.71,-153.41 70.97,-152.06 76.28,-150.85 81.64,-149.77 87,-148.84 92.37,-148.05 97.72,-147.42 103.03,-146.93 108.29,-146.61 113.48,-146.44 118.59,-146.43 123.6,-146.58 128.51,-146.89 133.29,-147.35 137.93,-147.97 142.43,-148.73 146.78,-149.65 150.97,-150.71 154.99,-151.9 158.83,-153.23 162.5,-154.69 165.98,-156.27 169.27,-157.96 172.37,-159.76 175.27,-161.66 177.98,-163.65 180.49,-165.73 182.81,-167.87 184.92,-170.09 186.84,-172.36 188.56,-174.68 190.09,-177.04 191.42,-179.43 192.55,-181.84 193.49,-184.27 194.24,-186.7 194.8,-189.13 195.16,-191.55 195.34,-193.96 195.33,-196.33 195.13,-198.68 194.75,-200.99 194.17,-203.25 193.41,-205.47 192.46,-207.63 191.33,-209.73 190.01,-211.76 188.51,-213.73 186.81,-215.62 184.93,-217.44 182.87,-219.19 180.61,-220.85 178.17,-222.43 175.55,-223.93 172.74,-225.34 169.75,-226.67 166.58,-227.91 163.23,-229.06 159.71,-230.13 156.01,-231.11 152.15,-231.99 148.12,-232.79 143.94,-233.51 139.61,-234.13 135.14,-234.66 130.53,-235.11 125.8,-235.47 120.96,-235.74 116.02,-235.93 110.99,-236.02 105.88,-236.03 100.71,-235.96 95.49,-235.79 90.24,-235.54 84.97,-235.2 79.71,-234.77 74.46,-234.25 69.26,-233.65 64.1,-232.95 59.02,-232.17 54.04,-231.3 49.17,-230.34 44.43,-229.29 39.84,-228.15 35.41,-226.92 31.18,-225.61 27.15,-224.21 23.34,-222.72 19.78,-221.15 16.47,-219.5 13.42,-217.77 10.66,-215.95 8.2,-214.07 6.05,-212.11 4.21,-210.08 2.7,-207.98 1.52,-205.83 0.68,-203.62 0.19,-201.35 0.04,-199.05 0.24,-196.7 0.78,-194.32 1.67,-191.92 2.91,-189.49 4.47,-187.06 6.37,-184.62 8.59,-182.19 11.11,-179.77 13.94,-177.37 17.05,-175 20.44,-172.67 24.09,-170.39 27.98,-168.16 32.09,-166 36.42,-163.92 40.93,-161.91 45.62,-160"/>
<text text-anchor="middle" x="104.96" y="-190.66" font-family="sans-serif" font-size="16.00">Accounting</text>
</g>
<!-- PostTrade -->
<g id="node2" class="node">
<title>PostTrade</title>
<polygon fill="none" stroke="black" stroke-width="2" points="253.55,-28.93 256.01,-26.34 258.67,-23.81 261.52,-21.36 264.55,-19.01 267.74,-16.76 271.09,-14.62 274.59,-12.59 278.22,-10.7 281.97,-8.94 285.83,-7.31 289.79,-5.84 293.84,-4.52 297.96,-3.35 302.15,-2.35 306.38,-1.51 310.66,-0.83 314.97,-0.32 319.3,0.03 323.63,0.21 327.96,0.22 332.28,0.08 336.58,-0.23 340.84,-0.69 345.06,-1.3 349.24,-2.06 353.35,-2.96 357.39,-3.99 361.36,-5.15 365.24,-6.44 369.03,-7.83 372.72,-9.34 376.3,-10.94 379.77,-12.63 383.11,-14.41 386.33,-16.26 389.41,-18.18 392.35,-20.15 395.15,-22.18 397.79,-24.25 400.27,-26.35 402.59,-28.48 404.73,-30.63 406.7,-32.8 408.49,-34.97 410.1,-37.15 411.51,-39.32 412.73,-41.49 413.76,-43.64 414.57,-45.77 415.19,-47.88 415.59,-49.96 415.78,-52.02 415.75,-54.04 415.51,-56.03 415.04,-57.99 414.36,-59.9 413.45,-61.78 412.32,-63.61 410.97,-65.4 409.4,-67.15 407.61,-68.85 405.61,-70.51 403.39,-72.12 400.96,-73.68 398.32,-75.19 395.48,-76.66 392.44,-78.07 389.22,-79.43 385.81,-80.73 382.23,-81.98 378.48,-83.18 374.58,-84.31 370.53,-85.38 366.34,-86.38 362.03,-87.32 357.61,-88.19 353.09,-88.98 348.48,-89.7 343.8,-90.34 339.07,-90.89 334.29,-91.35 329.48,-91.73 324.66,-92.01 319.84,-92.18 315.04,-92.26 310.28,-92.23 305.56,-92.09 300.91,-91.84 296.34,-91.47 291.87,-90.98 287.5,-90.37 283.27,-89.63 279.17,-88.78 275.23,-87.79 271.46,-86.68 267.86,-85.44 264.46,-84.08 261.26,-82.59 258.28,-80.98 255.51,-79.25 252.99,-77.4 250.7,-75.43 248.65,-73.36 246.86,-71.19 245.33,-68.92 244.06,-66.55 243.05,-64.11 242.31,-61.59 241.83,-59 241.63,-56.35 241.69,-53.66 242.01,-50.92 242.59,-48.16 243.43,-45.38 244.52,-42.59 245.86,-39.8 247.44,-37.04 249.25,-34.29 251.29,-31.59 253.55,-28.93"/>
<text text-anchor="middle" x="330.96" y="-44.92" font-family="sans-serif" font-size="16.00">PostTrade</text>
</g>
<!-- Accounting&#45;&gt;PostTrade -->
<g id="edge1" class="edge">
<title>Accounting&#45;&gt;PostTrade</title>
<path fill="none" stroke="black" stroke-width="2" d="M96.39,-147.4C96.6,-136.02 99.08,-124.51 105.96,-115.45 123.01,-93.01 187.47,-75.61 243.05,-64.37"/>
<text text-anchor="middle" x="181.46" y="-118.85" font-family="sans-serif" font-size="12.00"> &#160;&#160;&#160;&#160;&#160;&#160;&#160;&#160;&#160;&#160;&#160;&#160;&#160;&#160;&#160;&#160;&#160;&#160;&#160;&#160;&#160;&#160;&#160;&#160;&#160;&#160;&#160;&#160;&#160;&#160;&#160;&#160;&#160;&#160;&#160;&#160;&#160;&#160;&#160;</text>
<polygon fill="white" stroke="transparent" points="236.05,-55.37 236.05,-72.37 250.05,-72.37 250.05,-55.37 236.05,-55.37"/>
<text text-anchor="start" x="238.05" y="-60.77" font-family="sans-serif" font-size="12.00">D</text>
<polygon fill="white" stroke="transparent" points="89.39,-138.4 89.39,-155.4 103.39,-155.4 103.39,-138.4 89.39,-138.4"/>
<text text-anchor="start" x="91.39" y="-143.8" font-family="sans-serif" font-size="12.00">U</text>
</g>
<!-- IME_OMS -->
<g id="node3" class="node">
<title>IME_OMS</title>
<polygon fill="none" stroke="black" stroke-width="2" points="604.75,-201.08 604.01,-203.93 603.06,-206.74 601.89,-209.51 600.5,-212.22 598.9,-214.86 597.1,-217.42 595.09,-219.89 592.9,-222.26 590.51,-224.52 587.94,-226.66 585.2,-228.68 582.28,-230.57 579.22,-232.33 576,-233.94 572.63,-235.4 569.14,-236.72 565.52,-237.88 561.79,-238.89 557.96,-239.74 554.03,-240.43 550.03,-240.97 545.95,-241.36 541.81,-241.59 537.62,-241.67 533.39,-241.61 529.13,-241.4 524.86,-241.06 520.58,-240.58 516.32,-239.97 512.06,-239.24 507.84,-238.39 503.66,-237.43 499.53,-236.37 495.46,-235.21 491.47,-233.96 487.56,-232.63 483.74,-231.22 480.03,-229.73 476.43,-228.18 472.96,-226.58 469.62,-224.92 466.43,-223.22 463.38,-221.47 460.49,-219.69 457.78,-217.88 455.23,-216.04 452.87,-214.17 450.7,-212.3 448.72,-210.4 446.94,-208.5 445.37,-206.58 444.01,-204.66 442.86,-202.74 441.93,-200.81 441.22,-198.88 440.73,-196.96 440.47,-195.04 440.43,-193.12 440.62,-191.21 441.03,-189.3 441.67,-187.41 442.53,-185.52 443.62,-183.64 444.92,-181.78 446.44,-179.93 448.17,-178.09 450.11,-176.28 452.26,-174.48 454.6,-172.71 457.13,-170.96 459.84,-169.24 462.73,-167.55 465.79,-165.9 469.01,-164.29 472.38,-162.72 475.9,-161.2 479.54,-159.74 483.31,-158.34 487.19,-157 491.17,-155.73 495.25,-154.54 499.4,-153.43 503.62,-152.41 507.89,-151.48 512.2,-150.65 516.55,-149.93 520.92,-149.32 525.29,-148.83 529.65,-148.47 534,-148.23 538.32,-148.12 542.59,-148.15 546.81,-148.32 550.96,-148.64 555.03,-149.1 559.01,-149.71 562.89,-150.47 566.66,-151.38 570.3,-152.44 573.82,-153.65 577.19,-155.01 580.4,-156.51 583.46,-158.15 586.34,-159.93 589.05,-161.85 591.57,-163.89 593.91,-166.05 596.04,-168.33 597.97,-170.71 599.69,-173.19 601.2,-175.76 602.49,-178.4 603.56,-181.12 604.41,-183.89 605.03,-186.7 605.43,-189.56 605.6,-192.43 605.54,-195.32 605.26,-198.21 604.75,-201.08"/>
<text text-anchor="middle" x="522.96" y="-190.66" font-family="sans-serif" font-size="16.00">IME_OMS</text>
</g>
<!-- IME_OMS&#45;&gt;PostTrade -->
<g id="edge2" class="edge">
<title>IME_OMS&#45;&gt;PostTrade</title>
<path fill="none" stroke="black" stroke-width="2" d="M478.43,-160.12C447.85,-137.23 407.39,-106.94 376.58,-83.88"/>
<text text-anchor="middle" x="508.46" y="-118.85" font-family="sans-serif" font-size="12.00"> &#160;&#160;&#160;&#160;&#160;&#160;&#160;&#160;&#160;&#160;&#160;&#160;&#160;&#160;&#160;&#160;&#160;&#160;&#160;&#160;&#160;&#160;&#160;&#160;&#160;&#160;&#160;&#160;&#160;&#160;&#160;&#160;&#160;&#160;&#160;&#160;&#160;&#160;&#160;</text>
<polygon fill="white" stroke="transparent" points="369.58,-74.88 369.58,-91.88 383.58,-91.88 383.58,-74.88 369.58,-74.88"/>
<text text-anchor="start" x="371.58" y="-80.28" font-family="sans-serif" font-size="12.00">D</text>
<polygon fill="white" stroke="transparent" points="471.43,-151.12 471.43,-168.12 485.43,-168.12 485.43,-151.12 471.43,-151.12"/>
<text text-anchor="start" x="473.43" y="-156.52" font-family="sans-serif" font-size="12.00">U</text>
</g>
<!-- MDP -->
<g id="node4" class="node">
<title>MDP</title>
<polygon fill="none" stroke="black" stroke-width="2" points="273.75,-364.38 271.67,-362 269.74,-359.57 267.96,-357.1 266.34,-354.6 264.88,-352.07 263.6,-349.53 262.5,-346.98 261.58,-344.44 260.85,-341.91 260.31,-339.41 259.97,-336.93 259.82,-334.49 259.87,-332.1 260.13,-329.76 260.57,-327.47 261.22,-325.26 262.06,-323.11 263.09,-321.03 264.3,-319.04 265.7,-317.12 267.27,-315.3 269.01,-313.56 270.91,-311.91 272.97,-310.36 275.17,-308.91 277.51,-307.55 279.97,-306.28 282.56,-305.12 285.25,-304.05 288.03,-303.08 290.91,-302.21 293.85,-301.43 296.86,-300.75 299.92,-300.16 303.02,-299.67 306.16,-299.27 309.31,-298.96 312.46,-298.74 315.62,-298.61 318.76,-298.57 321.88,-298.61 324.97,-298.74 328.02,-298.95 331.01,-299.25 333.95,-299.62 336.82,-300.08 339.62,-300.63 342.33,-301.25 344.97,-301.95 347.51,-302.73 349.95,-303.59 352.29,-304.54 354.53,-305.56 356.65,-306.65 358.67,-307.83 360.57,-309.09 362.35,-310.42 364.02,-311.83 365.57,-313.32 366.99,-314.88 368.3,-316.51 369.48,-318.22 370.54,-320 371.48,-321.85 372.3,-323.76 372.99,-325.74 373.57,-327.78 374.02,-329.87 374.36,-332.02 374.58,-334.22 374.68,-336.46 374.66,-338.74 374.52,-341.06 374.27,-343.4 373.91,-345.76 373.42,-348.14 372.83,-350.52 372.12,-352.9 371.3,-355.28 370.37,-357.64 369.33,-359.97 368.17,-362.27 366.91,-364.53 365.53,-366.74 364.05,-368.89 362.46,-370.97 360.77,-372.97 358.97,-374.89 357.07,-376.72 355.07,-378.44 352.97,-380.05 350.77,-381.55 348.48,-382.92 346.1,-384.17 343.64,-385.27 341.09,-386.24 338.47,-387.05 335.78,-387.72 333.01,-388.23 330.19,-388.58 327.32,-388.77 324.39,-388.8 321.43,-388.67 318.43,-388.37 315.42,-387.91 312.38,-387.3 309.34,-386.52 306.3,-385.59 303.27,-384.51 300.27,-383.28 297.3,-381.91 294.37,-380.41 291.5,-378.77 288.69,-377.02 285.95,-375.15 283.3,-373.17 280.75,-371.1 278.3,-368.94 275.96,-366.69 273.75,-364.38"/>
<text text-anchor="middle" x="320.96" y="-336.39" font-family="sans-serif" font-size="16.00">MDP</text>
</g>
<!-- MDP&#45;&gt;PostTrade -->
<g id="edge3" class="edge">
<title>MDP&#45;&gt;PostTrade</title>
<path fill="none" stroke="black" stroke-width="2" d="M300.06,-299.88C292.09,-282.76 283.96,-262.14 279.96,-242.48 271.46,-200.65 269.71,-187.88 279.96,-146.45 284.61,-127.65 293.65,-108.48 302.85,-92.21"/>
<text text-anchor="middle" x="355.46" y="-191.36" font-family="sans-serif" font-size="12.00"> &#160;&#160;&#160;&#160;&#160;&#160;&#160;&#160;&#160;&#160;&#160;&#160;&#160;&#160;&#160;&#160;&#160;&#160;&#160;&#160;&#160;&#160;&#160;&#160;&#160;&#160;&#160;&#160;&#160;&#160;&#160;&#160;&#160;&#160;&#160;&#160;&#160;&#160;&#160;</text>
<polygon fill="white" stroke="transparent" points="295.85,-83.21 295.85,-100.21 309.85,-100.21 309.85,-83.21 295.85,-83.21"/>
<text text-anchor="start" x="297.85" y="-88.61" font-family="sans-serif" font-size="12.00">D</text>
<polygon fill="white" stroke="transparent" points="276.06,-289.88 276.06,-308.88 292.06,-308.88 292.06,-289.88 276.06,-289.88"/>
<polyline fill="none" stroke="black" points="292.06,-289.88 292.06,-308.88 "/>
<text text-anchor="start" x="279.06" y="-296.28" font-family="sans-serif" font-size="12.00">U</text>
<polygon fill="white" stroke="transparent" points="292.06,-289.88 292.06,-308.88 325.06,-308.88 325.06,-289.88 292.06,-289.88"/>
<polygon fill="none" stroke="black" points="292.06,-289.88 292.06,-308.88 325.06,-308.88 325.06,-289.88 292.06,-289.88"/>
<text text-anchor="start" x="295.06" y="-296.28" font-family="sans-serif" font-size="12.00">OHS</text>
</g>
<!-- MDP&#45;&gt;IME_OMS -->
<g id="edge4" class="edge">
<title>MDP&#45;&gt;IME_OMS</title>
<path fill="none" stroke="black" stroke-width="2" d="M330.37,-299.11C335.51,-285.11 343.29,-270.42 354.96,-260.48 379.74,-239.36 395.38,-253.63 425.96,-242.48 440.03,-237.35 454.77,-230.83 468.4,-224.3"/>
<text text-anchor="middle" x="430.46" y="-263.88" font-family="sans-serif" font-size="12.00"> &#160;&#160;&#160;&#160;&#160;&#160;&#160;&#160;&#160;&#160;&#160;&#160;&#160;&#160;&#160;&#160;&#160;&#160;&#160;&#160;&#160;&#160;&#160;&#160;&#160;&#160;&#160;&#160;&#160;&#160;&#160;&#160;&#160;&#160;&#160;&#160;&#160;&#160;&#160;</text>
<polygon fill="white" stroke="transparent" points="461.4,-215.3 461.4,-232.3 475.4,-232.3 475.4,-215.3 461.4,-215.3"/>
<text text-anchor="start" x="463.4" y="-220.7" font-family="sans-serif" font-size="12.00">D</text>
<polygon fill="white" stroke="transparent" points="306.37,-289.11 306.37,-308.11 322.37,-308.11 322.37,-289.11 306.37,-289.11"/>
<polyline fill="none" stroke="black" points="322.37,-289.11 322.37,-308.11 "/>
<text text-anchor="start" x="309.37" y="-295.51" font-family="sans-serif" font-size="12.00">U</text>
<polygon fill="white" stroke="transparent" points="322.37,-289.11 322.37,-308.11 355.37,-308.11 355.37,-289.11 322.37,-289.11"/>
<polygon fill="none" stroke="black" points="322.37,-289.11 322.37,-308.11 355.37,-308.11 355.37,-289.11 322.37,-289.11"/>
<text text-anchor="start" x="325.37" y="-295.51" font-family="sans-serif" font-size="12.00">OHS</text>
</g>
<!-- Personage -->
<g id="node5" class="node">
<title>Personage</title>
<polygon fill="none" stroke="black" stroke-width="2" points="433.96,-362.5 430.86,-360.03 428,-357.52 425.39,-354.97 423.04,-352.39 420.96,-349.8 419.16,-347.2 417.65,-344.61 416.45,-342.02 415.54,-339.46 414.94,-336.93 414.66,-334.43 414.69,-331.98 415.03,-329.59 415.69,-327.25 416.67,-324.98 417.95,-322.78 419.54,-320.67 421.43,-318.63 423.62,-316.68 426.08,-314.82 428.82,-313.05 431.83,-311.38 435.09,-309.81 438.58,-308.34 442.3,-306.97 446.23,-305.71 450.36,-304.54 454.66,-303.48 459.13,-302.52 463.74,-301.66 468.48,-300.9 473.33,-300.25 478.28,-299.69 483.29,-299.22 488.36,-298.86 493.47,-298.58 498.6,-298.4 503.73,-298.31 508.85,-298.31 513.94,-298.39 518.98,-298.56 523.96,-298.82 528.87,-299.16 533.68,-299.58 538.39,-300.07 542.98,-300.65 547.45,-301.31 551.78,-302.04 555.96,-302.86 559.98,-303.74 563.84,-304.71 567.52,-305.75 571.03,-306.86 574.35,-308.05 577.48,-309.31 580.42,-310.64 583.16,-312.05 585.7,-313.53 588.04,-315.09 590.18,-316.71 592.11,-318.4 593.84,-320.16 595.36,-321.99 596.68,-323.87 597.79,-325.83 598.7,-327.84 599.41,-329.9 599.92,-332.02 600.23,-334.19 600.34,-336.4 600.25,-338.65 599.97,-340.93 599.5,-343.25 598.84,-345.58 597.99,-347.94 596.96,-350.3 595.74,-352.66 594.33,-355.02 592.75,-357.37 590.98,-359.69 589.04,-361.99 586.92,-364.24 584.63,-366.45 582.17,-368.61 579.53,-370.7 576.74,-372.72 573.78,-374.66 570.66,-376.51 567.39,-378.26 563.96,-379.91 560.39,-381.44 556.67,-382.85 552.82,-384.13 548.84,-385.28 544.73,-386.29 540.51,-387.15 536.18,-387.86 531.75,-388.42 527.23,-388.82 522.62,-389.05 517.95,-389.13 513.22,-389.04 508.44,-388.78 503.63,-388.36 498.79,-387.78 493.95,-387.04 489.12,-386.14 484.3,-385.08 479.53,-383.87 474.8,-382.52 470.15,-381.03 465.57,-379.4 461.1,-377.65 456.75,-375.77 452.53,-373.79 448.45,-371.7 444.55,-369.52 440.82,-367.25 437.28,-364.91 433.96,-362.5"/>
<text text-anchor="middle" x="512.96" y="-336.39" font-family="sans-serif" font-size="16.00">Personage</text>
</g>
<!-- Personage&#45;&gt;PostTrade -->
<g id="edge5" class="edge">
<title>Personage&#45;&gt;PostTrade</title>
<path fill="none" stroke="black" stroke-width="2" d="M595.34,-321.39C620.74,-311.62 645.94,-296.58 660.96,-273.48 681.88,-241.3 749.3,-365.57 614.96,-146.45 574.19,-79.95 483.94,-58.15 416.05,-51.51"/>
<text text-anchor="middle" x="749.46" y="-191.36" font-family="sans-serif" font-size="12.00"> &#160;&#160;&#160;&#160;&#160;&#160;&#160;&#160;&#160;&#160;&#160;&#160;&#160;&#160;&#160;&#160;&#160;&#160;&#160;&#160;&#160;&#160;&#160;&#160;&#160;&#160;&#160;&#160;&#160;&#160;&#160;&#160;&#160;&#160;&#160;&#160;&#160;&#160;&#160;</text>
<polygon fill="white" stroke="transparent" points="409.05,-42.51 409.05,-59.51 423.05,-59.51 423.05,-42.51 409.05,-42.51"/>
<text text-anchor="start" x="411.05" y="-47.91" font-family="sans-serif" font-size="12.00">D</text>
<polygon fill="white" stroke="transparent" points="588.34,-312.39 588.34,-329.39 602.34,-329.39 602.34,-312.39 588.34,-312.39"/>
<text text-anchor="start" x="590.34" y="-317.79" font-family="sans-serif" font-size="12.00">U</text>
</g>
<!-- Personage&#45;&gt;IME_OMS -->
<g id="edge6" class="edge">
<title>Personage&#45;&gt;IME_OMS</title>
<path fill="none" stroke="black" stroke-width="2" d="M509.28,-298.27C508.76,-286.09 508.75,-272.73 509.96,-260.48 510.63,-253.72 511.68,-246.62 512.9,-239.7"/>
<text text-anchor="middle" x="585.46" y="-263.88" font-family="sans-serif" font-size="12.00"> &#160;&#160;&#160;&#160;&#160;&#160;&#160;&#160;&#160;&#160;&#160;&#160;&#160;&#160;&#160;&#160;&#160;&#160;&#160;&#160;&#160;&#160;&#160;&#160;&#160;&#160;&#160;&#160;&#160;&#160;&#160;&#160;&#160;&#160;&#160;&#160;&#160;&#160;&#160;</text>
<polygon fill="white" stroke="transparent" points="505.9,-230.7 505.9,-247.7 519.9,-247.7 519.9,-230.7 505.9,-230.7"/>
<text text-anchor="start" x="507.9" y="-236.1" font-family="sans-serif" font-size="12.00">D</text>
<polygon fill="white" stroke="transparent" points="502.28,-289.27 502.28,-306.27 516.28,-306.27 516.28,-289.27 502.28,-289.27"/>
<text text-anchor="start" x="504.28" y="-294.67" font-family="sans-serif" font-size="12.00">U</text>
</g>
</g>
</svg>
