<svg width="2000px" height="1837px"
 viewBox="0.00 0.00 418.10 383.92" xmlns="http://www.w3.org/2000/svg" xmlns:xlink="http://www.w3.org/1999/xlink">
<g id="graph0" class="graph" transform="scale(1.0 1.0) rotate(0) translate(4 379.92)">
<title>ContextMapGraph</title>
<polygon fill="white" stroke="transparent" points="-4,4 -4,-379.92 414.1,-379.92 414.1,4 -4,4"/>
<!-- IME_OMS -->
<g id="node1" class="node">
<title>IME_OMS</title>
<polygon fill="none" stroke="black" stroke-width="2" points="96.27,-143.61 101.67,-143.85 107.02,-144.21 112.29,-144.68 117.46,-145.28 122.51,-145.98 127.42,-146.8 132.18,-147.74 136.75,-148.77 141.14,-149.92 145.31,-151.17 149.26,-152.51 152.97,-153.95 156.43,-155.48 159.63,-157.1 162.57,-158.8 165.23,-160.58 167.6,-162.44 169.7,-164.36 171.5,-166.34 173.01,-168.38 174.24,-170.47 175.18,-172.61 175.84,-174.78 176.21,-176.99 176.31,-179.23 176.14,-181.5 175.72,-183.77 175.04,-186.06 174.12,-188.35 172.97,-190.63 171.59,-192.91 170.01,-195.17 168.23,-197.41 166.26,-199.62 164.12,-201.8 161.81,-203.94 159.35,-206.03 156.75,-208.07 154.03,-210.05 151.19,-211.97 148.24,-213.82 145.2,-215.6 142.07,-217.3 138.87,-218.92 135.6,-220.45 132.27,-221.89 128.89,-223.24 125.47,-224.49 122.01,-225.63 118.51,-226.67 114.99,-227.6 111.45,-228.42 107.88,-229.13 104.31,-229.72 100.72,-230.2 97.12,-230.56 93.52,-230.79 89.91,-230.91 86.3,-230.91 82.69,-230.79 79.09,-230.56 75.49,-230.2 71.9,-229.72 68.32,-229.13 64.76,-228.42 61.22,-227.6 57.69,-226.67 54.2,-225.63 50.74,-224.49 47.31,-223.24 43.93,-221.89 40.61,-220.45 37.34,-218.92 34.13,-217.3 31.01,-215.6 27.97,-213.82 25.02,-211.97 22.18,-210.05 19.45,-208.07 16.86,-206.03 14.4,-203.94 12.09,-201.8 9.95,-199.62 7.98,-197.41 6.2,-195.17 4.61,-192.91 3.24,-190.63 2.09,-188.35 1.17,-186.06 0.49,-183.77 0.06,-181.5 -0.1,-179.23 -0,-176.99 0.37,-174.78 1.03,-172.61 1.97,-170.47 3.19,-168.38 4.71,-166.34 6.51,-164.36 8.6,-162.44 10.98,-160.58 13.64,-158.8 16.58,-157.1 19.78,-155.48 23.24,-153.95 26.95,-152.51 30.9,-151.17 35.07,-149.92 39.45,-148.77 44.03,-147.74 48.78,-146.8 53.7,-145.98 58.75,-145.28 63.92,-144.68 69.19,-144.21 74.54,-143.85 79.94,-143.61 85.38,-143.49 90.83,-143.49 96.27,-143.61"/>
<text text-anchor="middle" x="88.1" y="-183.4" font-family="sans-serif" font-size="16.00">IME_OMS</text>
</g>
<!-- PostTrade -->
<g id="node2" class="node">
<title>PostTrade</title>
<polygon fill="none" stroke="black" stroke-width="2" points="127.48,-9.12 132.3,-7.63 137.22,-6.25 142.2,-4.99 147.24,-3.86 152.31,-2.86 157.39,-2 162.47,-1.27 167.52,-0.69 172.54,-0.25 177.49,0.04 182.37,0.17 187.16,0.16 191.85,-0.01 196.42,-0.33 200.86,-0.79 205.16,-1.41 209.3,-2.18 213.29,-3.09 217.1,-4.14 220.74,-5.33 224.19,-6.65 227.46,-8.1 230.53,-9.66 233.41,-11.35 236.09,-13.14 238.57,-15.03 240.85,-17.02 242.92,-19.09 244.8,-21.25 246.48,-23.47 247.96,-25.75 249.25,-28.09 250.34,-30.47 251.25,-32.88 251.97,-35.33 252.5,-37.79 252.85,-40.26 253.03,-42.73 253.04,-45.19 252.87,-47.65 252.54,-50.07 252.04,-52.47 251.38,-54.83 250.56,-57.15 249.58,-59.42 248.45,-61.63 247.17,-63.78 245.73,-65.87 244.14,-67.88 242.41,-69.82 240.52,-71.68 238.49,-73.45 236.31,-75.14 233.99,-76.74 231.52,-78.25 228.91,-79.66 226.15,-80.98 223.26,-82.21 220.22,-83.34 217.04,-84.36 213.74,-85.29 210.29,-86.13 206.72,-86.86 203.03,-87.49 199.21,-88.03 195.28,-88.47 191.23,-88.81 187.09,-89.06 182.85,-89.2 178.53,-89.26 174.12,-89.22 169.66,-89.08 165.13,-88.86 160.56,-88.54 155.96,-88.13 151.34,-87.63 146.71,-87.04 142.1,-86.37 137.51,-85.6 132.96,-84.75 128.47,-83.82 124.06,-82.8 119.73,-81.69 115.51,-80.51 111.42,-79.24 107.47,-77.89 103.68,-76.47 100.06,-74.96 96.63,-73.39 93.41,-71.74 90.42,-70.02 87.66,-68.23 85.15,-66.37 82.9,-64.45 80.93,-62.48 79.25,-60.44 77.86,-58.36 76.77,-56.22 75.99,-54.04 75.53,-51.83 75.38,-49.58 75.56,-47.3 76.06,-45 76.88,-42.68 78.01,-40.35 79.47,-38.02 81.23,-35.69 83.3,-33.37 85.66,-31.07 88.3,-28.79 91.23,-26.55 94.41,-24.35 97.84,-22.2 101.5,-20.1 105.39,-18.07 109.47,-16.1 113.74,-14.22 118.18,-12.43 122.76,-10.72 127.48,-9.12"/>
<text text-anchor="middle" x="171.1" y="-43.37" font-family="sans-serif" font-size="16.00">PostTrade</text>
</g>
<!-- IME_OMS&#45;&gt;PostTrade -->
<g id="edge1" class="edge">
<title>IME_OMS&#45;&gt;PostTrade</title>
<path fill="none" stroke="black" stroke-width="2" d="M82.39,-143.28C82.65,-132.73 84.43,-121.77 89.1,-112.35 95.12,-100.2 104.66,-89.66 115.12,-80.83"/>
<text text-anchor="middle" x="164.6" y="-115.75" font-family="sans-serif" font-size="12.00"> &#160;&#160;&#160;&#160;&#160;&#160;&#160;&#160;&#160;&#160;&#160;&#160;&#160;&#160;&#160;&#160;&#160;&#160;&#160;&#160;&#160;&#160;&#160;&#160;&#160;&#160;&#160;&#160;&#160;&#160;&#160;&#160;&#160;&#160;&#160;&#160;&#160;&#160;&#160;</text>
<polygon fill="white" stroke="transparent" points="108.12,-71.83 108.12,-88.83 122.12,-88.83 122.12,-71.83 108.12,-71.83"/>
<text text-anchor="start" x="110.12" y="-77.23" font-family="sans-serif" font-size="12.00">D</text>
<polygon fill="white" stroke="transparent" points="75.39,-134.28 75.39,-151.28 89.39,-151.28 89.39,-134.28 75.39,-134.28"/>
<text text-anchor="start" x="77.39" y="-139.68" font-family="sans-serif" font-size="12.00">U</text>
</g>
<!-- MDP -->
<g id="node3" class="node">
<title>MDP</title>
<polygon fill="none" stroke="black" stroke-width="2" points="213.51,-299 215.99,-301.12 218.34,-303.31 220.55,-305.56 222.6,-307.86 224.49,-310.2 226.22,-312.57 227.76,-314.97 229.13,-317.38 230.3,-319.8 231.28,-322.21 232.06,-324.62 232.64,-327.01 233.02,-329.38 233.19,-331.72 233.15,-334.03 232.91,-336.29 232.47,-338.5 231.82,-340.66 230.97,-342.77 229.93,-344.81 228.71,-346.78 227.29,-348.68 225.7,-350.51 223.95,-352.27 222.03,-353.95 219.95,-355.54 217.74,-357.06 215.39,-358.49 212.92,-359.83 210.33,-361.09 207.65,-362.26 204.87,-363.35 202.01,-364.34 199.09,-365.25 196.1,-366.08 193.08,-366.81 190.01,-367.46 186.93,-368.01 183.83,-368.48 180.72,-368.87 177.63,-369.16 174.55,-369.37 171.49,-369.49 168.48,-369.52 165.5,-369.46 162.58,-369.32 159.71,-369.08 156.91,-368.76 154.18,-368.35 151.52,-367.86 148.95,-367.27 146.47,-366.59 144.07,-365.83 141.77,-364.97 139.56,-364.03 137.46,-362.99 135.45,-361.87 133.55,-360.65 131.75,-359.35 130.06,-357.97 128.48,-356.49 127,-354.93 125.64,-353.29 124.38,-351.57 123.22,-349.76 122.18,-347.89 121.25,-345.93 120.42,-343.91 119.71,-341.83 119.1,-339.68 118.6,-337.48 118.21,-335.22 117.93,-332.92 117.76,-330.58 117.7,-328.21 117.75,-325.81 117.91,-323.39 118.19,-320.96 118.57,-318.53 119.08,-316.1 119.69,-313.68 120.42,-311.28 121.27,-308.91 122.24,-306.58 123.32,-304.3 124.52,-302.07 125.84,-299.91 127.28,-297.82 128.83,-295.81 130.51,-293.89 132.3,-292.07 134.2,-290.36 136.22,-288.75 138.35,-287.27 140.59,-285.91 142.94,-284.68 145.39,-283.59 147.94,-282.65 150.58,-281.84 153.31,-281.19 156.13,-280.69 159.02,-280.35 161.97,-280.16 164.99,-280.13 168.06,-280.25 171.18,-280.54 174.33,-280.97 177.5,-281.57 180.69,-282.31 183.88,-283.19 187.07,-284.23 190.23,-285.4 193.37,-286.7 196.47,-288.13 199.51,-289.68 202.49,-291.34 205.39,-293.12 208.2,-294.99 210.91,-296.95 213.51,-299"/>
<text text-anchor="middle" x="171.1" y="-324.19" font-family="sans-serif" font-size="16.00">MDP</text>
</g>
<!-- MDP&#45;&gt;IME_OMS -->
<g id="edge2" class="edge">
<title>MDP&#45;&gt;IME_OMS</title>
<path fill="none" stroke="black" stroke-width="2" d="M124.5,-301.25C110.54,-291.01 96.88,-277.86 89.1,-262.06 84.46,-252.62 82.69,-241.66 82.43,-231.1"/>
<text text-anchor="middle" x="164.6" y="-252.46" font-family="sans-serif" font-size="12.00"> &#160;&#160;&#160;&#160;&#160;&#160;&#160;&#160;&#160;&#160;&#160;&#160;&#160;&#160;&#160;&#160;&#160;&#160;&#160;&#160;&#160;&#160;&#160;&#160;&#160;&#160;&#160;&#160;&#160;&#160;&#160;&#160;&#160;&#160;&#160;&#160;&#160;&#160;&#160;</text>
<polygon fill="white" stroke="transparent" points="75.43,-222.1 75.43,-239.1 89.43,-239.1 89.43,-222.1 75.43,-222.1"/>
<text text-anchor="start" x="77.43" y="-227.5" font-family="sans-serif" font-size="12.00">D</text>
<polygon fill="white" stroke="transparent" points="100.5,-291.25 100.5,-310.25 116.5,-310.25 116.5,-291.25 100.5,-291.25"/>
<polyline fill="none" stroke="black" points="116.5,-291.25 116.5,-310.25 "/>
<text text-anchor="start" x="103.5" y="-297.65" font-family="sans-serif" font-size="12.00">U</text>
<polygon fill="white" stroke="transparent" points="116.5,-291.25 116.5,-310.25 149.5,-310.25 149.5,-291.25 116.5,-291.25"/>
<polygon fill="none" stroke="black" points="116.5,-291.25 116.5,-310.25 149.5,-310.25 149.5,-291.25 116.5,-291.25"/>
<text text-anchor="start" x="119.5" y="-297.65" font-family="sans-serif" font-size="12.00">OHS</text>
</g>
<!-- MDP&#45;&gt;PostTrade -->
<g id="edge3" class="edge">
<title>MDP&#45;&gt;PostTrade</title>
<path fill="none" stroke="black" stroke-width="2" d="M212.75,-297.96C223.73,-287.98 234.17,-275.8 240.1,-262.06 266.5,-200.98 266.68,-173.35 240.1,-112.35 235.47,-101.7 228.09,-92.02 219.86,-83.59"/>
<text text-anchor="middle" x="334.6" y="-184.1" font-family="sans-serif" font-size="12.00"> &#160;&#160;&#160;&#160;&#160;&#160;&#160;&#160;&#160;&#160;&#160;&#160;&#160;&#160;&#160;&#160;&#160;&#160;&#160;&#160;&#160;&#160;&#160;&#160;&#160;&#160;&#160;&#160;&#160;&#160;&#160;&#160;&#160;&#160;&#160;&#160;&#160;&#160;&#160;</text>
<polygon fill="white" stroke="transparent" points="212.86,-74.59 212.86,-91.59 226.86,-91.59 226.86,-74.59 212.86,-74.59"/>
<text text-anchor="start" x="214.86" y="-79.99" font-family="sans-serif" font-size="12.00">D</text>
<polygon fill="white" stroke="transparent" points="188.75,-287.96 188.75,-306.96 204.75,-306.96 204.75,-287.96 188.75,-287.96"/>
<polyline fill="none" stroke="black" points="204.75,-287.96 204.75,-306.96 "/>
<text text-anchor="start" x="191.75" y="-294.36" font-family="sans-serif" font-size="12.00">U</text>
<polygon fill="white" stroke="transparent" points="204.75,-287.96 204.75,-306.96 237.75,-306.96 237.75,-287.96 204.75,-287.96"/>
<polygon fill="none" stroke="black" points="204.75,-287.96 204.75,-306.96 237.75,-306.96 237.75,-287.96 204.75,-287.96"/>
<text text-anchor="start" x="207.75" y="-294.36" font-family="sans-serif" font-size="12.00">OHS</text>
</g>
</g>
</svg>
