<svg width="2000px" height="1120px"
 viewBox="0.00 0.00 948.45 531.21" xmlns="http://www.w3.org/2000/svg" xmlns:xlink="http://www.w3.org/1999/xlink">
<g id="graph0" class="graph" transform="scale(1.0 1.0) rotate(0) translate(4 527.21)">
<title>ContextMapGraph</title>
<polygon fill="white" stroke="transparent" points="-4,4 -4,-527.21 944.45,-527.21 944.45,4 -4,4"/>
<!-- Accounting -->
<g id="node1" class="node">
<title>Accounting</title>
<polygon fill="none" stroke="black" stroke-width="2" points="174.98,-158.28 179.33,-160.35 183.47,-162.49 187.37,-164.69 191.02,-166.94 194.4,-169.25 197.49,-171.58 200.29,-173.95 202.78,-176.34 204.95,-178.74 206.8,-181.14 208.3,-183.54 209.47,-185.93 210.28,-188.31 210.75,-190.66 210.86,-192.97 210.63,-195.26 210.04,-197.49 209.11,-199.68 207.84,-201.82 206.24,-203.9 204.31,-205.92 202.06,-207.87 199.51,-209.76 196.67,-211.57 193.55,-213.31 190.17,-214.97 186.54,-216.56 182.68,-218.06 178.6,-219.48 174.32,-220.82 169.87,-222.07 165.25,-223.24 160.5,-224.32 155.62,-225.31 150.64,-226.22 145.57,-227.04 140.44,-227.77 135.26,-228.42 130.05,-228.98 124.83,-229.45 119.62,-229.83 114.43,-230.12 109.27,-230.32 104.17,-230.43 99.13,-230.46 94.17,-230.39 89.31,-230.24 84.55,-229.99 79.9,-229.65 75.37,-229.22 70.98,-228.7 66.72,-228.09 62.61,-227.39 58.65,-226.59 54.85,-225.7 51.21,-224.71 47.73,-223.64 44.42,-222.47 41.29,-221.21 38.32,-219.86 35.53,-218.42 32.91,-216.89 30.48,-215.28 28.21,-213.58 26.13,-211.8 24.22,-209.94 22.49,-208 20.94,-205.99 19.57,-203.91 18.38,-201.77 17.37,-199.57 16.54,-197.31 15.89,-195 15.43,-192.65 15.14,-190.27 15.05,-187.85 15.14,-185.42 15.42,-182.97 15.89,-180.51 16.55,-178.05 17.41,-175.6 18.47,-173.17 19.72,-170.77 21.17,-168.4 22.83,-166.07 24.69,-163.8 26.76,-161.59 29.03,-159.45 31.51,-157.38 34.19,-155.41 37.08,-153.53 40.18,-151.75 43.47,-150.08 46.96,-148.53 50.65,-147.1 54.53,-145.8 58.59,-144.64 62.83,-143.62 67.24,-142.74 71.81,-142.01 76.52,-141.43 81.38,-141.01 86.37,-140.74 91.47,-140.62 96.68,-140.66 101.97,-140.86 107.33,-141.22 112.74,-141.73 118.19,-142.38 123.66,-143.19 129.12,-144.14 134.57,-145.23 139.97,-146.46 145.32,-147.81 150.58,-149.29 155.74,-150.88 160.79,-152.58 165.68,-154.39 170.42,-156.29 174.98,-158.28"/>
<text text-anchor="middle" x="105.45" y="-184.79" font-family="sans-serif" font-size="16.00">Accounting</text>
</g>
<!-- PostTrade -->
<g id="node2" class="node">
<title>PostTrade</title>
<polygon fill="none" stroke="black" stroke-width="2" points="445.88,-8.58 450.74,-10.05 455.44,-11.61 459.97,-13.26 464.3,-14.99 468.43,-16.8 472.32,-18.68 475.97,-20.62 479.36,-22.61 482.48,-24.66 485.31,-26.75 487.84,-28.87 490.07,-31.03 491.99,-33.21 493.59,-35.41 494.87,-37.62 495.82,-39.84 496.44,-42.05 496.74,-44.27 496.72,-46.47 496.37,-48.66 495.71,-50.82 494.74,-52.96 493.46,-55.08 491.9,-57.15 490.05,-59.19 487.94,-61.19 485.57,-63.14 482.95,-65.04 480.1,-66.89 477.04,-68.68 473.78,-70.41 470.34,-72.08 466.73,-73.68 462.96,-75.21 459.07,-76.68 455.05,-78.06 450.94,-79.38 446.74,-80.61 442.46,-81.76 438.14,-82.83 433.77,-83.82 429.38,-84.72 424.97,-85.52 420.57,-86.24 416.17,-86.86 411.81,-87.38 407.47,-87.81 403.18,-88.14 398.94,-88.37 394.77,-88.5 390.66,-88.52 386.63,-88.44 382.67,-88.25 378.8,-87.95 375.03,-87.55 371.34,-87.04 367.76,-86.42 364.27,-85.69 360.89,-84.85 357.61,-83.91 354.44,-82.86 351.38,-81.7 348.42,-80.44 345.58,-79.08 342.86,-77.62 340.24,-76.06 337.75,-74.41 335.37,-72.66 333.12,-70.83 330.99,-68.91 328.99,-66.92 327.12,-64.85 325.38,-62.72 323.78,-60.52 322.32,-58.26 321.01,-55.96 319.85,-53.61 318.85,-51.22 318.02,-48.8 317.35,-46.37 316.86,-43.91 316.55,-41.46 316.42,-39 316.49,-36.55 316.76,-34.13 317.24,-31.72 317.92,-29.36 318.82,-27.03 319.94,-24.76 321.29,-22.54 322.86,-20.4 324.66,-18.32 326.7,-16.33 328.97,-14.43 331.47,-12.62 334.2,-10.91 337.16,-9.31 340.35,-7.83 343.76,-6.46 347.38,-5.22 351.22,-4.1 355.25,-3.12 359.48,-2.27 363.88,-1.55 368.45,-0.98 373.18,-0.54 378.05,-0.24 383.04,-0.09 388.14,-0.07 393.33,-0.2 398.59,-0.46 403.91,-0.86 409.26,-1.39 414.62,-2.06 419.97,-2.85 425.3,-3.77 430.57,-4.8 435.77,-5.95 440.88,-7.22 445.88,-8.58"/>
<text text-anchor="middle" x="400.45" y="-42.13" font-family="sans-serif" font-size="16.00">PostTrade</text>
</g>
<!-- Accounting&#45;&gt;PostTrade -->
<g id="edge1" class="edge">
<title>Accounting&#45;&gt;PostTrade</title>
<path fill="none" stroke="black" stroke-width="2" d="M96.49,-140.54C96.82,-129.47 99.44,-118.42 106.45,-109.86 133,-77.45 241.82,-60.95 319.32,-53.14"/>
<text text-anchor="middle" x="181.95" y="-113.26" font-family="sans-serif" font-size="12.00"> &#160;&#160;&#160;&#160;&#160;&#160;&#160;&#160;&#160;&#160;&#160;&#160;&#160;&#160;&#160;&#160;&#160;&#160;&#160;&#160;&#160;&#160;&#160;&#160;&#160;&#160;&#160;&#160;&#160;&#160;&#160;&#160;&#160;&#160;&#160;&#160;&#160;&#160;&#160;</text>
<polygon fill="white" stroke="transparent" points="312.32,-44.14 312.32,-61.14 326.32,-61.14 326.32,-44.14 312.32,-44.14"/>
<text text-anchor="start" x="314.32" y="-49.54" font-family="sans-serif" font-size="12.00">D</text>
<polygon fill="white" stroke="transparent" points="89.49,-131.54 89.49,-148.54 103.49,-148.54 103.49,-131.54 89.49,-131.54"/>
<text text-anchor="start" x="91.49" y="-136.94" font-family="sans-serif" font-size="12.00">U</text>
</g>
<!-- IME -->
<g id="node3" class="node">
<title>IME</title>
<polygon fill="none" stroke="black" stroke-width="2" points="759.99,-439.05 762.95,-440.39 765.82,-441.83 768.59,-443.36 771.26,-444.98 773.8,-446.68 776.22,-448.46 778.49,-450.3 780.61,-452.21 782.58,-454.17 784.38,-456.19 786,-458.25 787.45,-460.35 788.72,-462.48 789.8,-464.64 790.68,-466.82 791.38,-469.02 791.89,-471.22 792.2,-473.43 792.32,-475.64 792.24,-477.84 791.99,-480.02 791.54,-482.19 790.92,-484.34 790.12,-486.46 789.16,-488.55 788.03,-490.61 786.75,-492.62 785.32,-494.6 783.75,-496.52 782.06,-498.4 780.24,-500.22 778.31,-501.98 776.27,-503.68 774.15,-505.31 771.93,-506.88 769.65,-508.38 767.3,-509.8 764.89,-511.15 762.44,-512.42 759.95,-513.61 757.44,-514.71 754.9,-515.72 752.35,-516.65 749.79,-517.48 747.23,-518.22 744.69,-518.86 742.15,-519.41 739.64,-519.85 737.15,-520.19 734.7,-520.43 732.27,-520.56 729.89,-520.58 727.54,-520.5 725.24,-520.31 722.98,-520 720.78,-519.59 718.62,-519.07 716.52,-518.43 714.47,-517.68 712.48,-516.82 710.54,-515.86 708.67,-514.78 706.85,-513.6 705.09,-512.31 703.39,-510.92 701.75,-509.43 700.18,-507.84 698.67,-506.15 697.22,-504.38 695.85,-502.52 694.55,-500.57 693.31,-498.55 692.16,-496.46 691.08,-494.3 690.08,-492.08 689.17,-489.81 688.34,-487.48 687.6,-485.12 686.96,-482.73 686.42,-480.3 685.98,-477.86 685.65,-475.41 685.42,-472.95 685.31,-470.5 685.33,-468.06 685.46,-465.64 685.72,-463.25 686.11,-460.9 686.63,-458.6 687.29,-456.34 688.09,-454.15 689.02,-452.03 690.1,-449.98 691.33,-448.01 692.69,-446.13 694.2,-444.35 695.85,-442.67 697.64,-441.1 699.57,-439.64 701.64,-438.3 703.83,-437.08 706.15,-435.99 708.6,-435.02 711.15,-434.19 713.82,-433.49 716.58,-432.93 719.44,-432.5 722.37,-432.21 725.38,-432.06 728.46,-432.05 731.58,-432.17 734.74,-432.43 737.93,-432.83 741.14,-433.35 744.35,-434 747.55,-434.78 750.72,-435.67 753.86,-436.69 756.96,-437.82 759.99,-439.05"/>
<text text-anchor="middle" x="735.45" y="-473.85" font-family="sans-serif" font-size="16.00">IME</text>
</g>
<!-- MDP -->
<g id="node4" class="node">
<title>MDP</title>
<polygon fill="none" stroke="black" stroke-width="2" points="682.93,-350.89 681.47,-348.26 680.16,-345.59 679.02,-342.91 678.03,-340.22 677.22,-337.53 676.58,-334.86 676.12,-332.21 675.84,-329.58 675.74,-327 675.83,-324.47 676.1,-322 676.56,-319.59 677.2,-317.26 678.03,-315 679.03,-312.84 680.21,-310.76 681.57,-308.78 683.09,-306.9 684.78,-305.13 686.63,-303.47 688.63,-301.91 690.78,-300.47 693.06,-299.14 695.47,-297.93 698,-296.83 700.64,-295.84 703.39,-294.97 706.22,-294.22 709.14,-293.57 712.12,-293.03 715.17,-292.6 718.27,-292.28 721.4,-292.06 724.57,-291.94 727.75,-291.92 730.93,-291.99 734.12,-292.15 737.29,-292.4 740.43,-292.74 743.54,-293.17 746.61,-293.67 749.62,-294.25 752.57,-294.91 755.45,-295.64 758.26,-296.45 760.98,-297.32 763.6,-298.27 766.13,-299.28 768.55,-300.35 770.86,-301.49 773.06,-302.7 775.14,-303.97 777.09,-305.3 778.92,-306.68 780.62,-308.13 782.18,-309.64 783.61,-311.21 784.91,-312.84 786.07,-314.52 787.09,-316.26 787.97,-318.05 788.72,-319.9 789.33,-321.8 789.8,-323.74 790.13,-325.74 790.33,-327.77 790.4,-329.85 790.33,-331.97 790.13,-334.12 789.81,-336.3 789.35,-338.51 788.77,-340.74 788.07,-342.99 787.24,-345.24 786.3,-347.5 785.24,-349.75 784.07,-351.99 782.78,-354.22 781.39,-356.42 779.89,-358.59 778.28,-360.72 776.58,-362.8 774.77,-364.82 772.87,-366.78 770.88,-368.66 768.8,-370.46 766.64,-372.17 764.39,-373.78 762.07,-375.29 759.67,-376.68 757.2,-377.95 754.66,-379.09 752.07,-380.09 749.42,-380.96 746.71,-381.67 743.97,-382.24 741.18,-382.65 738.36,-382.9 735.51,-382.99 732.64,-382.92 729.75,-382.68 726.86,-382.28 723.97,-381.71 721.09,-380.97 718.23,-380.08 715.39,-379.03 712.58,-377.82 709.81,-376.46 707.09,-374.95 704.43,-373.31 701.84,-371.53 699.32,-369.62 696.89,-367.6 694.55,-365.47 692.32,-363.23 690.19,-360.91 688.18,-358.5 686.29,-356.02 684.54,-353.48 682.93,-350.89"/>
<text text-anchor="middle" x="735.45" y="-330.41" font-family="sans-serif" font-size="16.00">MDP</text>
</g>
<!-- IME&#45;&gt;MDP -->
<g id="edge2" class="edge">
<title>IME&#45;&gt;MDP</title>
<path fill="none" stroke="black" stroke-width="2" d="M735.45,-432.29C735.45,-416.74 735.45,-399.2 735.45,-383.35"/>
<text text-anchor="middle" x="810.95" y="-404.5" font-family="sans-serif" font-size="12.00"> &#160;&#160;&#160;&#160;&#160;&#160;&#160;&#160;&#160;&#160;&#160;&#160;&#160;&#160;&#160;&#160;&#160;&#160;&#160;&#160;&#160;&#160;&#160;&#160;&#160;&#160;&#160;&#160;&#160;&#160;&#160;&#160;&#160;&#160;&#160;&#160;&#160;&#160;&#160;</text>
<polygon fill="white" stroke="transparent" points="728.45,-374.35 728.45,-391.35 742.45,-391.35 742.45,-374.35 728.45,-374.35"/>
<text text-anchor="start" x="730.45" y="-379.75" font-family="sans-serif" font-size="12.00">D</text>
<polygon fill="white" stroke="transparent" points="728.45,-423.29 728.45,-440.29 742.45,-440.29 742.45,-423.29 728.45,-423.29"/>
<text text-anchor="start" x="730.45" y="-428.69" font-family="sans-serif" font-size="12.00">U</text>
</g>
<!-- MDP&#45;&gt;PostTrade -->
<g id="edge4" class="edge">
<title>MDP&#45;&gt;PostTrade</title>
<path fill="none" stroke="black" stroke-width="2" d="M779.5,-306.91C797.35,-292.65 811.8,-273.96 802.45,-254.33 745.38,-134.5 588.47,-82.5 488.41,-60.99"/>
<text text-anchor="middle" x="864.95" y="-185.49" font-family="sans-serif" font-size="12.00"> &#160;&#160;&#160;&#160;&#160;&#160;&#160;&#160;&#160;&#160;&#160;&#160;&#160;&#160;&#160;&#160;&#160;&#160;&#160;&#160;&#160;&#160;&#160;&#160;&#160;&#160;&#160;&#160;&#160;&#160;&#160;&#160;&#160;&#160;&#160;&#160;&#160;&#160;&#160;</text>
<polygon fill="white" stroke="transparent" points="481.41,-51.99 481.41,-68.99 495.41,-68.99 495.41,-51.99 481.41,-51.99"/>
<text text-anchor="start" x="483.41" y="-57.39" font-family="sans-serif" font-size="12.00">D</text>
<polygon fill="white" stroke="transparent" points="755.5,-296.91 755.5,-315.91 771.5,-315.91 771.5,-296.91 755.5,-296.91"/>
<polyline fill="none" stroke="black" points="771.5,-296.91 771.5,-315.91 "/>
<text text-anchor="start" x="758.5" y="-303.31" font-family="sans-serif" font-size="12.00">U</text>
<polygon fill="white" stroke="transparent" points="771.5,-296.91 771.5,-315.91 804.5,-315.91 804.5,-296.91 771.5,-296.91"/>
<polygon fill="none" stroke="black" points="771.5,-296.91 771.5,-315.91 804.5,-315.91 804.5,-296.91 771.5,-296.91"/>
<text text-anchor="start" x="774.5" y="-303.31" font-family="sans-serif" font-size="12.00">OHS</text>
</g>
<!-- PreTrade -->
<g id="node5" class="node">
<title>PreTrade</title>
<polygon fill="none" stroke="black" stroke-width="2" points="582.1,-154.8 586.22,-156.6 590.17,-158.48 593.94,-160.43 597.51,-162.45 600.87,-164.53 603.99,-166.67 606.87,-168.84 609.49,-171.06 611.85,-173.31 613.94,-175.57 615.74,-177.86 617.25,-180.15 618.47,-182.45 619.39,-184.74 620,-187.02 620.31,-189.28 620.32,-191.52 620.03,-193.74 619.44,-195.92 618.55,-198.06 617.39,-200.16 615.94,-202.21 614.22,-204.21 612.23,-206.16 610,-208.05 607.53,-209.88 604.83,-211.64 601.92,-213.34 598.81,-214.97 595.52,-216.53 592.06,-218.01 588.44,-219.42 584.68,-220.76 580.81,-222.01 576.82,-223.18 572.75,-224.28 568.6,-225.29 564.4,-226.21 560.14,-227.06 555.86,-227.81 551.57,-228.48 547.27,-229.06 542.98,-229.54 538.72,-229.94 534.5,-230.25 530.32,-230.46 526.19,-230.58 522.14,-230.6 518.16,-230.53 514.26,-230.36 510.45,-230.09 506.73,-229.72 503.12,-229.26 499.62,-228.69 496.22,-228.03 492.95,-227.26 489.78,-226.39 486.74,-225.43 483.83,-224.36 481.03,-223.19 478.37,-221.93 475.83,-220.57 473.42,-219.11 471.14,-217.56 468.99,-215.92 466.97,-214.19 465.09,-212.38 463.34,-210.48 461.72,-208.51 460.24,-206.46 458.9,-204.34 457.69,-202.16 456.63,-199.93 455.72,-197.63 454.95,-195.3 454.33,-192.92 453.86,-190.51 453.55,-188.08 453.39,-185.63 453.4,-183.16 453.57,-180.7 453.92,-178.24 454.43,-175.8 455.13,-173.38 456,-171 457.06,-168.65 458.3,-166.35 459.73,-164.11 461.35,-161.94 463.17,-159.84 465.17,-157.82 467.37,-155.9 469.77,-154.07 472.36,-152.34 475.14,-150.73 478.11,-149.23 481.26,-147.86 484.59,-146.61 488.1,-145.5 491.77,-144.52 495.61,-143.69 499.6,-142.99 503.73,-142.45 507.99,-142.05 512.37,-141.8 516.86,-141.7 521.44,-141.75 526.1,-141.95 530.83,-142.3 535.6,-142.78 540.41,-143.42 545.23,-144.19 550.04,-145.09 554.84,-146.13 559.59,-147.29 564.28,-148.58 568.9,-149.98 573.42,-151.48 577.83,-153.09 582.1,-154.8"/>
<text text-anchor="middle" x="530.45" y="-184.79" font-family="sans-serif" font-size="16.00">PreTrade</text>
</g>
<!-- MDP&#45;&gt;PreTrade -->
<g id="edge3" class="edge">
<title>MDP&#45;&gt;PreTrade</title>
<path fill="none" stroke="black" stroke-width="2" d="M692.02,-299.51C673.3,-285.27 651.02,-268.68 630.45,-254.33 614.85,-243.44 597.55,-232.01 581.78,-221.84"/>
<text text-anchor="middle" x="722.95" y="-257.73" font-family="sans-serif" font-size="12.00"> &#160;&#160;&#160;&#160;&#160;&#160;&#160;&#160;&#160;&#160;&#160;&#160;&#160;&#160;&#160;&#160;&#160;&#160;&#160;&#160;&#160;&#160;&#160;&#160;&#160;&#160;&#160;&#160;&#160;&#160;&#160;&#160;&#160;&#160;&#160;&#160;&#160;&#160;&#160;</text>
<polygon fill="white" stroke="transparent" points="574.78,-212.84 574.78,-229.84 588.78,-229.84 588.78,-212.84 574.78,-212.84"/>
<text text-anchor="start" x="576.78" y="-218.24" font-family="sans-serif" font-size="12.00">D</text>
<polygon fill="white" stroke="transparent" points="668.02,-289.51 668.02,-308.51 684.02,-308.51 684.02,-289.51 668.02,-289.51"/>
<polyline fill="none" stroke="black" points="684.02,-289.51 684.02,-308.51 "/>
<text text-anchor="start" x="671.02" y="-295.91" font-family="sans-serif" font-size="12.00">U</text>
<polygon fill="white" stroke="transparent" points="684.02,-289.51 684.02,-308.51 717.02,-308.51 717.02,-289.51 684.02,-289.51"/>
<polygon fill="none" stroke="black" points="684.02,-289.51 684.02,-308.51 717.02,-308.51 717.02,-289.51 684.02,-289.51"/>
<text text-anchor="start" x="687.02" y="-295.91" font-family="sans-serif" font-size="12.00">OHS</text>
</g>
<!-- PreTrade&#45;&gt;PostTrade -->
<g id="edge5" class="edge">
<title>PreTrade&#45;&gt;PostTrade</title>
<path fill="none" stroke="black" stroke-width="2" d="M490.74,-144.62C472.82,-125.23 451.86,-102.56 434.65,-83.93"/>
<text text-anchor="middle" x="544.95" y="-113.26" font-family="sans-serif" font-size="12.00"> &#160;&#160;&#160;&#160;&#160;&#160;&#160;&#160;&#160;&#160;&#160;&#160;&#160;&#160;&#160;&#160;&#160;&#160;&#160;&#160;&#160;&#160;&#160;&#160;&#160;&#160;&#160;&#160;&#160;&#160;&#160;&#160;&#160;&#160;&#160;&#160;&#160;&#160;&#160;</text>
<polygon fill="white" stroke="transparent" points="427.65,-74.93 427.65,-91.93 441.65,-91.93 441.65,-74.93 427.65,-74.93"/>
<text text-anchor="start" x="429.65" y="-80.33" font-family="sans-serif" font-size="12.00">D</text>
<polygon fill="white" stroke="transparent" points="483.74,-135.62 483.74,-152.62 497.74,-152.62 497.74,-135.62 483.74,-135.62"/>
<text text-anchor="start" x="485.74" y="-141.02" font-family="sans-serif" font-size="12.00">U</text>
</g>
<!-- Personage -->
<g id="node6" class="node">
<title>Personage</title>
<polygon fill="none" stroke="black" stroke-width="2" points="202.54,-315.84 204.94,-313.21 207.56,-310.64 210.39,-308.15 213.4,-305.75 216.6,-303.45 219.98,-301.25 223.51,-299.17 227.2,-297.21 231.02,-295.39 234.96,-293.7 239.03,-292.16 243.19,-290.77 247.45,-289.53 251.78,-288.46 256.18,-287.54 260.63,-286.79 265.13,-286.2 269.66,-285.78 274.21,-285.52 278.77,-285.43 283.33,-285.5 287.87,-285.73 292.39,-286.11 296.88,-286.65 301.32,-287.33 305.72,-288.16 310.05,-289.12 314.31,-290.21 318.48,-291.42 322.57,-292.74 326.57,-294.18 330.45,-295.71 334.22,-297.34 337.87,-299.05 341.39,-300.84 344.77,-302.7 348.01,-304.62 351.1,-306.59 354.03,-308.61 356.79,-310.66 359.39,-312.75 361.8,-314.86 364.03,-316.98 366.07,-319.12 367.92,-321.26 369.57,-323.41 371.01,-325.54 372.24,-327.67 373.25,-329.78 374.05,-331.88 374.62,-333.95 374.97,-336 375.09,-338.02 374.97,-340.01 374.63,-341.96 374.04,-343.89 373.22,-345.77 372.17,-347.62 370.88,-349.43 369.35,-351.21 367.59,-352.94 365.6,-354.63 363.38,-356.27 360.93,-357.87 358.26,-359.43 355.38,-360.94 352.29,-362.4 348.99,-363.82 345.5,-365.18 341.82,-366.49 337.96,-367.74 333.93,-368.94 329.74,-370.08 325.41,-371.16 320.94,-372.17 316.35,-373.12 311.65,-373.99 306.85,-374.78 301.97,-375.5 297.03,-376.14 292.03,-376.69 287,-377.15 281.94,-377.51 276.88,-377.77 271.84,-377.93 266.82,-377.99 261.84,-377.93 256.93,-377.76 252.09,-377.47 247.35,-377.07 242.71,-376.53 238.2,-375.88 233.83,-375.09 229.61,-374.18 225.56,-373.14 221.68,-371.97 218.01,-370.67 214.53,-369.24 211.27,-367.68 208.24,-366.01 205.45,-364.21 202.89,-362.29 200.59,-360.26 198.55,-358.12 196.77,-355.88 195.27,-353.55 194.03,-351.12 193.07,-348.62 192.38,-346.05 191.97,-343.41 191.84,-340.72 191.98,-337.99 192.4,-335.22 193.08,-332.43 194.03,-329.63 195.24,-326.83 196.7,-324.04 198.41,-321.27 200.36,-318.53 202.54,-315.84"/>
<text text-anchor="middle" x="285.45" y="-330.41" font-family="sans-serif" font-size="16.00">Personage</text>
</g>
<!-- Personage&#45;&gt;PostTrade -->
<g id="edge7" class="edge">
<title>Personage&#45;&gt;PostTrade</title>
<path fill="none" stroke="black" stroke-width="2" d="M272.47,-285.57C264.07,-244.98 258.36,-186.21 280.45,-140.86 293.49,-114.1 318.24,-92.72 341.9,-77.16"/>
<text text-anchor="middle" x="355.95" y="-185.49" font-family="sans-serif" font-size="12.00"> &#160;&#160;&#160;&#160;&#160;&#160;&#160;&#160;&#160;&#160;&#160;&#160;&#160;&#160;&#160;&#160;&#160;&#160;&#160;&#160;&#160;&#160;&#160;&#160;&#160;&#160;&#160;&#160;&#160;&#160;&#160;&#160;&#160;&#160;&#160;&#160;&#160;&#160;&#160;</text>
<polygon fill="white" stroke="transparent" points="334.9,-68.16 334.9,-85.16 348.9,-85.16 348.9,-68.16 334.9,-68.16"/>
<text text-anchor="start" x="336.9" y="-73.56" font-family="sans-serif" font-size="12.00">D</text>
<polygon fill="white" stroke="transparent" points="265.47,-276.57 265.47,-293.57 279.47,-293.57 279.47,-276.57 265.47,-276.57"/>
<text text-anchor="start" x="267.47" y="-281.97" font-family="sans-serif" font-size="12.00">U</text>
</g>
<!-- Personage&#45;&gt;PreTrade -->
<g id="edge6" class="edge">
<title>Personage&#45;&gt;PreTrade</title>
<path fill="none" stroke="black" stroke-width="2" d="M297.87,-286.74C303.25,-274.53 310.84,-262.5 321.45,-254.33 358.97,-225.44 381.17,-250.14 426.45,-236.33 441.79,-231.65 457.83,-225.25 472.6,-218.69"/>
<text text-anchor="middle" x="396.95" y="-257.73" font-family="sans-serif" font-size="12.00"> &#160;&#160;&#160;&#160;&#160;&#160;&#160;&#160;&#160;&#160;&#160;&#160;&#160;&#160;&#160;&#160;&#160;&#160;&#160;&#160;&#160;&#160;&#160;&#160;&#160;&#160;&#160;&#160;&#160;&#160;&#160;&#160;&#160;&#160;&#160;&#160;&#160;&#160;&#160;</text>
<polygon fill="white" stroke="transparent" points="465.6,-209.69 465.6,-226.69 479.6,-226.69 479.6,-209.69 465.6,-209.69"/>
<text text-anchor="start" x="467.6" y="-215.09" font-family="sans-serif" font-size="12.00">D</text>
<polygon fill="white" stroke="transparent" points="290.87,-277.74 290.87,-294.74 304.87,-294.74 304.87,-277.74 290.87,-277.74"/>
<text text-anchor="start" x="292.87" y="-283.14" font-family="sans-serif" font-size="12.00">U</text>
</g>
<!-- Wallet -->
<g id="node7" class="node">
<title>Wallet</title>
<polygon fill="none" stroke="black" stroke-width="2" points="544.36,-327.09 545.13,-329.91 545.72,-332.73 546.12,-335.54 546.32,-338.33 546.33,-341.09 546.14,-343.81 545.76,-346.47 545.19,-349.08 544.41,-351.61 543.45,-354.06 542.29,-356.42 540.94,-358.69 539.4,-360.85 537.68,-362.9 535.79,-364.84 533.72,-366.65 531.49,-368.35 529.1,-369.91 526.55,-371.34 523.87,-372.65 521.04,-373.81 518.09,-374.84 515.02,-375.74 511.84,-376.51 508.56,-377.14 505.2,-377.64 501.75,-378.01 498.25,-378.26 494.68,-378.38 491.08,-378.38 487.44,-378.27 483.78,-378.05 480.11,-377.72 476.44,-377.29 472.79,-376.76 469.16,-376.14 465.57,-375.43 462.02,-374.63 458.53,-373.75 455.11,-372.8 451.77,-371.78 448.52,-370.69 445.36,-369.53 442.31,-368.32 439.37,-367.05 436.56,-365.72 433.87,-364.35 431.32,-362.93 428.92,-361.46 426.66,-359.94 424.55,-358.39 422.61,-356.79 420.82,-355.16 419.2,-353.49 417.76,-351.78 416.48,-350.04 415.38,-348.26 414.45,-346.45 413.7,-344.61 413.12,-342.74 412.72,-340.84 412.5,-338.91 412.45,-336.96 412.58,-334.98 412.88,-332.98 413.35,-330.96 413.99,-328.93 414.79,-326.87 415.76,-324.81 416.88,-322.74 418.16,-320.67 419.59,-318.6 421.16,-316.54 422.88,-314.48 424.74,-312.45 426.72,-310.44 428.84,-308.45 431.07,-306.51 433.43,-304.61 435.89,-302.75 438.46,-300.96 441.12,-299.23 443.88,-297.57 446.73,-295.99 449.66,-294.5 452.66,-293.11 455.73,-291.82 458.85,-290.64 462.03,-289.58 465.26,-288.64 468.52,-287.83 471.82,-287.16 475.14,-286.64 478.47,-286.25 481.82,-286.02 485.16,-285.95 488.5,-286.03 491.82,-286.28 495.11,-286.69 498.38,-287.26 501.6,-287.99 504.77,-288.88 507.89,-289.94 510.94,-291.15 513.92,-292.52 516.81,-294.04 519.62,-295.71 522.32,-297.51 524.92,-299.45 527.4,-301.52 529.77,-303.7 532,-305.99 534.09,-308.39 536.04,-310.87 537.84,-313.43 539.48,-316.07 540.96,-318.76 542.27,-321.51 543.4,-324.28 544.36,-327.09"/>
<text text-anchor="middle" x="478.45" y="-330.41" font-family="sans-serif" font-size="16.00">Wallet</text>
</g>
<!-- Wallet&#45;&gt;PreTrade -->
<g id="edge8" class="edge">
<title>Wallet&#45;&gt;PreTrade</title>
<path fill="none" stroke="black" stroke-width="2" d="M474.06,-286.44C474.41,-275.66 475.89,-264.4 479.45,-254.33 482.75,-245.02 487.97,-236.03 493.84,-227.85"/>
<text text-anchor="middle" x="554.95" y="-257.73" font-family="sans-serif" font-size="12.00"> &#160;&#160;&#160;&#160;&#160;&#160;&#160;&#160;&#160;&#160;&#160;&#160;&#160;&#160;&#160;&#160;&#160;&#160;&#160;&#160;&#160;&#160;&#160;&#160;&#160;&#160;&#160;&#160;&#160;&#160;&#160;&#160;&#160;&#160;&#160;&#160;&#160;&#160;&#160;</text>
<polygon fill="white" stroke="transparent" points="486.84,-218.85 486.84,-235.85 500.84,-235.85 500.84,-218.85 486.84,-218.85"/>
<text text-anchor="start" x="488.84" y="-224.25" font-family="sans-serif" font-size="12.00">D</text>
<polygon fill="white" stroke="transparent" points="467.06,-277.44 467.06,-294.44 481.06,-294.44 481.06,-277.44 467.06,-277.44"/>
<text text-anchor="start" x="469.06" y="-282.84" font-family="sans-serif" font-size="12.00">U</text>
</g>
</g>
</svg>
